<svg width="19" height="18" viewBox="0 0 19 18" fill="none" xmlns="http://www.w3.org/2000/svg">
<path d="M17.9458 2.48022C17.7691 2.03961 17.4636 1.6626 17.0691 1.39851C16.6747 1.13442 16.2097 0.995564 15.735 1.00011H3.40073C2.92976 0.998372 2.46876 1.13571 2.07552 1.39491C1.68229 1.65411 1.37433 2.02363 1.19026 2.45714C1.00618 2.89066 0.954184 3.36886 1.04078 3.8318C1.12738 4.29475 1.34872 4.72182 1.67705 5.05948L6.96985 10.5646V16.382C6.96985 16.5476 7.03565 16.7065 7.15277 16.8236C7.26989 16.9407 7.42874 17.0065 7.59437 17.0065C7.66917 17.0073 7.74341 16.9935 7.81295 16.9659L11.5132 15.5858C11.6328 15.5411 11.7357 15.4609 11.8083 15.3559C11.8809 15.251 11.9196 15.1263 11.9192 14.9987V10.5646L17.4212 5.08446C17.761 4.75386 17.9929 4.32827 18.0865 3.86353C18.1801 3.39878 18.1311 2.91659 17.9458 2.48022ZM16.5406 4.20077L10.8544 9.8714C10.7371 9.98798 10.6708 10.1463 10.6701 10.3117V14.5647L8.21889 15.4827V10.3023C8.21906 10.1404 8.15636 9.98483 8.04403 9.86828L2.57948 4.18203C2.42352 4.02108 2.31846 3.81771 2.27747 3.59736C2.23647 3.37702 2.26135 3.14948 2.349 2.9432C2.43664 2.73692 2.58316 2.56106 2.77022 2.43761C2.95729 2.31416 3.1766 2.24861 3.40073 2.24915H15.735C15.9609 2.24952 16.1817 2.31686 16.3694 2.44266C16.5571 2.56846 16.7033 2.74707 16.7895 2.95593C16.8757 3.16479 16.8981 3.39452 16.8538 3.61609C16.8095 3.83765 16.7005 4.04112 16.5406 4.20077Z" fill="#176EDE" stroke="#176EDE" stroke-width="0.5"/>
</svg>
